{"title":"The Musketeers S01E09 Knight takes Queen x264 AAC E-Subs [GWC].m","uid":9818604,"size":230421824,"categoryP":"video","categoryS":"tv_shows","magnet":"?xt=urn:btih:a1cd83874c73b3c6d85452f95f4df28d36358aaa&amp;dn=The+Musketeers+S01E09+Knight+takes+Queen+x264+AAC+E-Subs+%5BGWC%5D.m&amp;tr=udp%3A%2F%2Ftracker.openbittorrent.com%3A80&amp;tr=udp%3A%2F%2Fopen.demonii.com%3A1337&amp;tr=udp%3A%2F%2Ftracker.coppersurfer.tk%3A6969&amp;tr=udp%3A%2F%2Fexodus.desync.com%3A6969","seeders":2,"leechers":0,"uploader":"canc232","files":1,"time":1395656893,"description":"The Musketeers S01E09 Knight takes Queen x264 AAC E-Subs [GWC] \n\n\nSTORYLINE :\nSet on the streets of 17th century Paris, series gives a contemporary take on the classic story about a group of highly trained soldiers and bodyguards assigned to protect King and country. \n\n\nSCREENS : &lt;a href=&quot;\nhttp://i.imgur.com/sFWK9Ql.jpg&quot; rel=&quot;nofollow&quot; target=&quot;_NEW&quot;&gt;\nhttp://i.imgur.com/sFWK9Ql.jpg&lt;/a&gt; &lt;a href=&quot;\nhttp://i.imgur.com/d7Nh8pI.jpg&quot; rel=&quot;nofollow&quot; target=&quot;_NEW&quot;&gt;\nhttp://i.imgur.com/d7Nh8pI.jpg&lt;/a&gt; &lt;a href=&quot;\nhttp://i.imgur.com/JNRPKPi.jpg&quot; rel=&quot;nofollow&quot; target=&quot;_NEW&quot;&gt;\nhttp://i.imgur.com/JNRPKPi.jpg&lt;/a&gt;\n\n\nMEDIA INFO :\nGeneral \nFormat : MPEG-4 \nFormat profile : Base Media \nFile size : 220 MiB \nDuration : 55mn 16s \nOverall bit rate mode : Variable \nOverall bit rate : 556 Kbps \n\nVideo \nFormat : AVC \nFormat profile : &lt;a class=&quot;__cf_email__&quot; href=&quot;/cdn-cgi/l/email-protection&quot; data-cfemail=&quot;e1a9888689a1add2cfd1&quot;&gt;[email&amp;#160;protected]&lt;/a&gt;&lt;script cf-hash='f9e31' type=&quot;text/javascript&quot;&gt;\n/* &lt;![CDATA[ */!function(){try{var t=&quot;currentScript&quot;in document?document.currentScript:function(){for(var t=document.getElementsByTagName(&quot;script&quot;),e=t.length;e--;)if(t[e].getAttribute(&quot;cf-hash&quot;))return t[e]}();if(t&amp;&amp;t.previousSibling){var e,r,n,i,c=t.previousSibling,a=c.getAttribute(&quot;data-cfemail&quot;);if(a){for(e=&quot;&quot;,r=parseInt(a.substr(0,2),16),n=2;a.length-n;n+=2)i=parseInt(a.substr(n,2),16)^r,e+=String.fromCharCode(i);e=document.createTextNode(e),c.parentNode.replaceChild(e,c)}}}catch(u){}}();/* ]]&gt; */&lt;/script&gt; \nFormat settings, CABAC : Yes \nFormat settings, ReFrames : 4 frames \nDuration : 55mn 16s \nBit rate : 493 Kbps \nMaximum bit rate : 2 691 Kbps \nWidth : 720 pixels \nHeight : 404 pixels \nDisplay aspect ratio : 16:9 \nFrame rate : 25.000 fps \nStream size : 195 MiB (89%) \nTitle : The Musketeers S01E09 Knight takes Queen x264 AAC E-Subs [GWC] \nWriting library : x264 core\n\nAudio \nFormat : AAC \nFormat profile : HE-AAC / LC \nDuration : 55mn 16s \nBit rate mode : Variable \nChannel(s) : 2 channels \nSampling rate : 48.0 KHz / 24.0 KHz \nStream size : 23.7 MiB (11%) \nLanguage : English \n\nText \nFormat : Timed Text \nTitle : English Subtitle by MemoryOnSmells \nLanguage : English","torrent":{"xt":"urn:btih:a1cd83874c73b3c6d85452f95f4df28d36358aaa","amp;dn":"The+Musketeers+S01E09+Knight+takes+Queen+x264+AAC+E-Subs+%5BGWC%5D.m","amp;tr":["udp%3A%2F%2Ftracker.openbittorrent.com%3A80","udp%3A%2F%2Fopen.demonii.com%3A1337","udp%3A%2F%2Ftracker.coppersurfer.tk%3A6969","udp%3A%2F%2Fexodus.desync.com%3A6969"],"infoHash":"a1cd83874c73b3c6d85452f95f4df28d36358aaa","infoHashBuffer":{"type":"Buffer","data":[161,205,131,135,76,115,179,198,216,84,82,249,95,77,242,141,54,53,138,170]},"announce":[],"urlList":[]}}